<svg width="91" height="120" viewBox="0 0 91 120" fill="none" xmlns="http://www.w3.org/2000/svg">
<path fill-rule="evenodd" clip-rule="evenodd" d="M90.2655 48.2399C92.1352 35.6313 82.6045 28.8533 69.5725 24.3316L73.7999 7.25182L63.4755 4.66083L59.3598 21.2906C56.6494 20.6095 53.8625 19.9669 51.0932 19.3303L55.2383 2.59099L44.9227 0L40.6924 17.0739C38.4464 16.5587 36.2416 16.0494 34.1014 15.5134L34.1132 15.4601L19.8789 11.8801L17.1331 22.9843C17.1331 22.9843 24.7912 24.7521 24.6295 24.8617C28.8099 25.9129 29.5683 28.6993 29.439 30.9083L24.6236 50.3659C24.9117 50.44 25.2851 50.5466 25.6967 50.7124L24.6089 50.44L17.8563 77.6972C17.3448 78.9764 16.0484 80.8952 13.1263 80.1668C13.2291 80.3178 5.624 78.2806 5.624 78.2806L0.5 90.1843L13.9347 93.5571C15.4512 93.9398 16.9494 94.3335 18.431 94.7229L18.4339 94.7237C19.3926 94.9756 20.3445 95.2258 21.29 95.47L17.0185 112.748L27.3282 115.339L31.5615 98.2475C34.3748 99.0174 37.1088 99.7281 39.784 100.397L35.5684 117.409L45.8898 120L50.1613 102.757C67.7616 106.112 80.9994 104.759 86.5643 88.7274C91.0533 75.8169 86.3438 68.3697 77.0836 63.5104C83.8274 61.9381 88.9073 57.4697 90.2625 48.2399H90.2655ZM66.6799 81.5497C63.7497 93.3992 45.3323 88.4963 36.9129 86.255L36.9119 86.2547C36.1584 86.0541 35.4849 85.8749 34.9099 85.7309L40.5778 62.8442C41.2809 63.021 42.1399 63.2152 43.1129 63.4351C51.8231 65.4039 69.6735 69.4386 66.6828 81.5497H66.6799ZM44.8625 52.8143C51.8876 54.7021 67.2005 58.8171 69.8681 48.0528C72.5953 37.0406 57.7051 33.7215 50.4329 32.1005C49.6154 31.9182 48.8941 31.7574 48.305 31.6096L43.1663 52.3672C43.6525 52.4892 44.2232 52.6425 44.8625 52.8143Z" fill="#242638"/>
</svg>
