<svg width="60" height="60" viewBox="0 0 60 60" fill="none" xmlns="http://www.w3.org/2000/svg">
<path d="M59.0998 37.2577C59.1 37.2577 59.1002 37.258 59.1001 37.2582C55.093 53.3295 38.8144 63.1093 22.7412 59.1024C6.67523 55.0956 -3.10571 38.8168 0.902101 22.7462C4.9071 6.67275 21.1849 -3.10913 37.2537 0.897746C53.326 4.90458 63.106 21.1849 59.0994 37.2573C59.0993 37.2575 59.0995 37.2577 59.0998 37.2577Z" fill="#7D8296" fill-opacity="0.3"/>
<path fill-rule="evenodd" clip-rule="evenodd" d="M39.0351 26.5147C39.4396 23.8067 37.3777 22.3509 34.5584 21.3798L35.4729 17.7114L33.2393 17.1549L32.349 20.7266C31.7626 20.5803 31.1597 20.4423 30.5606 20.3056L31.4573 16.7104L29.2256 16.1539L28.3104 19.821C27.8245 19.7103 27.3476 19.6009 26.8846 19.4858L26.8871 19.4744L23.8077 18.7054L23.2136 21.0904C23.2136 21.0904 24.8704 21.4701 24.8354 21.4936C25.7398 21.7194 25.9039 22.3178 25.8759 22.7923L24.8341 26.9714C24.8965 26.9873 24.9772 27.0102 25.0663 27.0458L24.831 26.9873L23.3701 32.8415C23.2594 33.1163 22.979 33.5284 22.3468 33.3719C22.3691 33.4044 20.7238 32.9668 20.7238 32.9668L19.6152 35.5235L22.5217 36.2479C22.8498 36.3301 23.1739 36.4146 23.4945 36.4983L23.4958 36.4986C23.703 36.5527 23.9086 36.6063 24.1129 36.6587L23.1888 40.3697L25.4192 40.9262L26.3351 37.2553C26.9437 37.4206 27.5352 37.5733 28.1139 37.717L27.2019 41.3707L29.4349 41.9272L30.359 38.2239C34.1666 38.9444 37.0305 38.6538 38.2344 35.2106C39.2055 32.4377 38.1867 30.8382 36.1833 29.7945C37.6423 29.4568 38.7413 28.4971 39.0344 26.5147H39.0351ZM33.9326 33.6689C33.2986 36.2139 29.3142 35.1609 27.4928 34.6795C27.3297 34.6364 27.1839 34.5979 27.0595 34.5669L28.2856 29.6514C28.4378 29.6894 28.6236 29.7311 28.8342 29.7783C30.7185 30.2012 34.5802 31.0677 33.9332 33.6689H33.9326ZM29.2129 27.4973C30.7327 27.9028 34.0455 28.7866 34.6226 26.4747C35.2126 24.1095 31.9913 23.3966 30.418 23.0484C30.2411 23.0093 30.0851 22.9748 29.9576 22.943L28.8459 27.4013C28.9511 27.4275 29.0746 27.4604 29.2129 27.4973Z" fill="#FF9900"/>
</svg>
