<svg width="23" height="22" viewBox="0 0 23 22" fill="none" xmlns="http://www.w3.org/2000/svg">
<path d="M15.75 13C15.5511 13 15.3603 13.079 15.2197 13.2197C15.079 13.3603 15 13.5511 15 13.75C15 13.9489 15.079 14.1397 15.2197 14.2803C15.3603 14.421 15.5511 14.5 15.75 14.5H18.25C18.4489 14.5 18.6397 14.421 18.7803 14.2803C18.921 14.1397 19 13.9489 19 13.75C19 13.5511 18.921 13.3603 18.7803 13.2197C18.6397 13.079 18.4489 13 18.25 13H15.75ZM1.31082e-06 2.75C1.31082e-06 2.02065 0.289733 1.32118 0.805458 0.805456C1.32118 0.289731 2.02066 0 2.75 0H16.25C16.9793 0 17.6788 0.289731 18.1945 0.805456C18.7103 1.32118 19 2.02065 19 2.75V4.008C19.9492 4.07142 20.8389 4.49325 21.4887 5.18804C22.1386 5.88284 22.5001 6.79866 22.5 7.75V18.25C22.5 19.2446 22.1049 20.1984 21.4017 20.9017C20.6984 21.6049 19.7446 22 18.75 22H3.754C2.75944 22 1.80561 21.6049 1.10235 20.9017C0.39909 20.1984 0.00400126 19.2446 0.00400126 18.25V7.75H1.31082e-06V3H0.0110012C0.00359063 2.91687 -7.96598e-05 2.83346 1.31082e-06 2.75ZM18.75 5.5H1.504V18.25C1.504 18.8467 1.74105 19.419 2.16301 19.841C2.58497 20.2629 3.15726 20.5 3.754 20.5H18.75C19.3467 20.5 19.919 20.2629 20.341 19.841C20.7629 19.419 21 18.8467 21 18.25V7.75C21 7.15326 20.7629 6.58097 20.341 6.15901C19.919 5.73705 19.3467 5.5 18.75 5.5ZM17.5 2.75C17.5 2.06 16.94 1.5 16.25 1.5H2.75C2.41848 1.5 2.10054 1.6317 1.86612 1.86612C1.6317 2.10054 1.5 2.41848 1.5 2.75C1.5 3.08152 1.6317 3.39946 1.86612 3.63388C2.10054 3.8683 2.41848 4 2.75 4H17.5V2.75Z" fill="#7D8296"/>
</svg>
