<svg width="121" height="120" viewBox="0 0 121 120" fill="none" xmlns="http://www.w3.org/2000/svg">
<path fill-rule="evenodd" clip-rule="evenodd" d="M0.5 8C0.5 3.58172 4.08172 0 8.5 0H72.4961C76.9144 0 80.4961 3.58172 80.4961 8V72C80.4961 76.4183 76.9144 80 72.4961 80H8.5C4.08172 80 0.5 76.4183 0.5 72V8ZM60.5001 22C60.5001 25.3138 57.8139 28 54.5004 28C51.1869 28 48.5007 25.3138 48.5007 22C48.5007 18.6863 51.1869 16 54.5004 16C57.8139 16 60.5001 18.6863 60.5001 22ZM48.0368 40.8578L40.8931 29.4272C39.3265 26.9206 35.676 26.9206 34.1094 29.4272L16.3273 57.8801C14.6622 60.5442 16.5775 64 19.7191 64H61.2831C64.4247 64 66.3399 60.5442 64.6749 57.8801L54.3924 41.4272C52.9551 39.1274 49.7637 38.9376 48.0368 40.8578ZM40.5039 86V112C40.5039 116.418 44.0856 120 48.5039 120H112.5C116.918 120 120.5 116.418 120.5 112V48C120.5 43.5817 116.918 40 112.5 40H86.5017V74.0001C86.5017 80.6275 81.1291 86 74.5017 86H40.5039ZM54.0004 94C52.8959 94 52.0005 94.8953 52.0005 95.9998C52.0005 97.1044 52.8959 97.9998 54.0004 97.9998H77.9992C79.1037 97.9998 79.9991 97.1044 79.9991 95.9998C79.9991 94.8953 79.1037 94 77.9992 94H54.0004ZM54.5004 104C53.3959 104 52.5005 104.895 52.5005 106C52.5005 107.104 53.3959 108 54.5004 108H106.498C107.602 108 108.498 107.104 108.498 106C108.498 104.895 107.602 104 106.498 104H54.5004Z" fill="#fff"/>
</svg>
