<svg width="22" height="22" viewBox="0 0 22 22" fill="none" xmlns="http://www.w3.org/2000/svg">
<path d="M6.92005 0H3.54005V2H6.92005V0ZM10.4601 3.561C10.4601 1.60822 8.89278 0 6.92005 0V2C7.76732 2 8.46005 2.69178 8.46005 3.561H10.4601ZM10.4601 6.97V3.561H8.46005V6.97H10.4601ZM6.92005 10.53C8.89 10.53 10.4601 8.93459 10.4601 6.97H8.46005C8.46005 7.84541 7.77011 8.53 6.92005 8.53V10.53ZM3.54005 10.53H6.92005V8.53H3.54005V10.53ZM5.04255e-05 6.97C5.04255e-05 8.93717 1.58266 10.53 3.54005 10.53V8.53C2.69744 8.53 2.00005 7.84283 2.00005 6.97H5.04255e-05ZM5.04255e-05 3.561V6.97H2.00005V3.561H5.04255e-05ZM3.54005 0C1.57987 0 5.04255e-05 1.60564 5.04255e-05 3.561H2.00005C2.00005 2.69436 2.70023 2 3.54005 2V0ZM6.92 11.4697H3.54V13.4697H6.92V11.4697ZM10.46 15.0307C10.46 13.0666 8.89045 11.4697 6.92 11.4697V13.4697C7.76955 13.4697 8.46 14.1548 8.46 15.0307H10.46ZM10.46 18.4397V15.0307H8.46V18.4397H10.46ZM6.92 21.9997C8.89248 21.9997 10.46 20.3917 10.46 18.4397H8.46C8.46 19.3076 7.76752 19.9997 6.92 19.9997V21.9997ZM3.54 21.9997H6.92V19.9997H3.54V21.9997ZM0 18.4397C0 20.3943 1.58008 21.9997 3.54 21.9997V19.9997C2.69992 19.9997 2 19.3051 2 18.4397H0ZM0 15.0307V18.4397H2V15.0307H0ZM3.54 11.4697C1.5821 11.4697 0 13.064 0 15.0307H2C2 14.1573 2.6979 13.4697 3.54 13.4697V11.4697ZM15.0801 2.00001H18.4601V1.35899e-05H15.0801V2.00001ZM13.5401 3.56101C13.5401 2.6918 14.2329 2.00001 15.0801 2.00001V1.35899e-05C13.1074 1.35899e-05 11.5401 1.60823 11.5401 3.56101H13.5401ZM13.5401 6.97001V3.56101H11.5401V6.97001H13.5401ZM15.0801 8.53001C14.2301 8.53001 13.5401 7.84542 13.5401 6.97001H11.5401C11.5401 8.93461 13.1102 10.53 15.0801 10.53V8.53001ZM18.4601 8.53001H15.0801V10.53H18.4601V8.53001ZM20.0001 6.97001C20.0001 7.84285 19.3027 8.53001 18.4601 8.53001V10.53C20.4175 10.53 22.0001 8.93718 22.0001 6.97001H20.0001ZM20.0001 3.56101V6.97001H22.0001V3.56101H20.0001ZM18.4601 2.00001C19.2999 2.00001 20.0001 2.69437 20.0001 3.56101H22.0001C22.0001 1.60565 20.4203 1.35899e-05 18.4601 1.35899e-05V2.00001ZM18.4601 11.4697H15.0801V13.4697H18.4601V11.4697ZM22.0001 15.0307C22.0001 13.064 20.418 11.4697 18.4601 11.4697V13.4697C19.3022 13.4697 20.0001 14.1573 20.0001 15.0307H22.0001ZM22.0001 18.4397V15.0307H20.0001V18.4397H22.0001ZM18.4601 21.9997C20.42 21.9997 22.0001 20.3943 22.0001 18.4397H20.0001C20.0001 19.3051 19.3002 19.9997 18.4601 19.9997V21.9997ZM15.0801 21.9997H18.4601V19.9997H15.0801V21.9997ZM11.5401 18.4397C11.5401 20.3917 13.1076 21.9997 15.0801 21.9997V19.9997C14.2326 19.9997 13.5401 19.3076 13.5401 18.4397H11.5401ZM11.5401 15.0307V18.4397H13.5401V15.0307H11.5401ZM15.0801 11.4697C13.1097 11.4697 11.5401 13.0666 11.5401 15.0307H13.5401C13.5401 14.1548 14.2306 13.4697 15.0801 13.4697V11.4697Z" fill="#7D8296"/>
</svg>
